<?xml version="1.0" encoding="UTF-8" standalone="no"?>
<svg
   width="1152"
   height="1152"
   viewBox="0 0 288 288"
   fill="none"
   version="1.1"
   id="svg2551"
   sodipodi:docname="whatsapp-splash-image-light.svg"
   xml:space="preserve"
   inkscape:version="1.2.1 (9c6d41e410, 2022-07-14, custom)"
   inkscape:export-filename="whatsapp-splash-image-light.png"
   inkscape:export-xdpi="96"
   inkscape:export-ydpi="96"
   xmlns:inkscape="http://www.inkscape.org/namespaces/inkscape"
   xmlns:sodipodi="http://sodipodi.sourceforge.net/DTD/sodipodi-0.dtd"
   xmlns:xlink="http://www.w3.org/1999/xlink"
   xmlns="http://www.w3.org/2000/svg"
   xmlns:svg="http://www.w3.org/2000/svg"><defs
     id="defs2555"><color-profile
       name="sRGB"
       xlink:href="file:///usr/share/color/icc/colord/sRGB.icc"
       id="color-profile8855" /></defs><sodipodi:namedview
     id="namedview2553"
     pagecolor="#505050"
     bordercolor="#eeeeee"
     borderopacity="1"
     inkscape:showpageshadow="0"
     inkscape:pageopacity="0"
     inkscape:pagecheckerboard="0"
     inkscape:deskcolor="#505050"
     showgrid="false"
     inkscape:zoom="0.27786171"
     inkscape:cx="370.68799"
     inkscape:cy="494.85047"
     inkscape:window-width="1366"
     inkscape:window-height="740"
     inkscape:window-x="0"
     inkscape:window-y="0"
     inkscape:window-maximized="1"
     inkscape:current-layer="svg2551" /><g
     id="g8603"
     style="fill:#25d366;fill-opacity:1"
     transform="matrix(0.33548675,0,0,0.33548675,58.115392,58.115392)"><path
       fill-rule="evenodd"
       clip-rule="evenodd"
       d="m 392.04908,119.14399 c -36.0928,-36.139201 -84.096,-56.051533 -135.24267,-56.069869 -105.39201,0 -191.165387,85.764269 -191.202059,191.184009 -0.01835,33.70027 8.791873,66.59414 25.523005,95.58294 L 63.999999,448.92588 165.35851,422.33921 c 27.9247,15.23733 59.37003,23.25867 91.36577,23.26827 h 0.0821 c 105.37387,0 191.15734,-85.77387 191.19361,-191.19361 0.0181,-51.09121 -19.84853,-99.1214 -55.95094,-135.2607 z M 256.80641,413.31841 h -0.064 c -28.512,-0.009 -56.48214,-7.6736 -80.8864,-22.14934 l -5.80353,-3.4464 -60.14955,15.77707 16.0527,-58.6464 -3.77717,-6.01387 C 106.27243,313.53707 97.865597,284.2912 97.883943,254.26773 97.920637,166.6513 169.20896,95.362869 256.87148,95.362869 c 42.44587,0.01835 82.34453,16.566191 112.34987,46.608861 30.0064,30.0336 46.51733,69.96853 46.4992,112.424 -0.0373,87.62561 -71.3248,158.91415 -158.91414,158.91415 z"
       fill="#ffffff"
       id="path2549"
       style="fill:#25d366;fill-opacity:1;stroke-width:1.06667"
       sodipodi:nodetypes="ccccccssccccsccccccccccc" /><text
       xml:space="preserve"
       style="font-style:normal;font-variant:normal;font-weight:600;font-stretch:normal;font-size:226.551px;font-family:'Source Sans Pro';-inkscape-font-specification:'Source Sans Pro, Semi-Bold';font-variant-ligatures:normal;font-variant-caps:normal;font-variant-numeric:normal;font-variant-east-asian:normal;opacity:1;fill:#25d366;fill-opacity:1;stroke-width:3.45449;paint-order:stroke markers fill"
       x="149.86084"
       y="328.72287"
       id="text8528"><tspan
         sodipodi:role="line"
         id="tspan8526"
         x="149.86084"
         y="328.72287">UI</tspan></text></g></svg>
